<svg xmlns="http://www.w3.org/2000/svg" viewBox="0 0 792 612">
  <g fill="#595959">
    <path d="M431.6 288.4c2.4 33.8 3.6 53 3.6 57.8 0 5-.2 9.6-.7 13.7-.2 2.6-.5 4.6-.2 5.5.2.7.5.7 1.2-.5.5-1 1-2.2 1.9-3.8 3.4-8.6 5-18.7 5-30 0-3.8-1-20.4-3.1-49.9-2.2-29.8-3.4-44.6-3.4-45.1 0-1.2.2-1.7.7-1 4.3 4.8 6.2 6 6.2 3.8 0-.5 0-1.7-.5-2.9-.5-1.9-2.2-6.7-5.3-14.6-2.9-7.4-4.6-12-5.3-13.7-.5-.7-.7-1.2-1.2-1.2-.2 0-.5.5-.7 1.2-2.9 6.2-4.1 10.3-4.1 12 1.4 3.1 2.2 7 2.2 11.8.1 4.1 1.3 23 3.7 56.9zM393 361.1c5.8 0 10.8-3.6 15.1-10.3 5-8.2 7.7-19.2 7.7-33.4 0-5-1-20.2-2.9-45.4-1.9-25.4-2.9-38.4-2.9-38.6 0-1.2.2-1.4.7-1 4.1 4.8 6.2 6 6.2 3.8 0-.5-.2-1.7-.5-3.1-.7-1.7-2.4-6.5-5.3-14.4-2.9-7.4-4.8-12-5.5-13.7-.5-1-.7-1.2-1-1.2-.5 0-.7.2-1 1-2.6 6.5-4.1 10.6-4.1 12.2 1.4 3.1 2.2 7 2.2 11.5 0 5.3 1 22.3 3.1 51.1 2.2 28.8 3.4 45.4 3.4 49.4 0 6.7-.7 10.8-1.9 11.8-4.3 3.6-8.9 5.5-13.4 5.5-7.2 0-12.2-.2-14.9-1 4.1-5.3 6.2-12.7 6.2-22.1 0-3.8-.7-7.7-1.9-11.3-1.7-4.6-4.3-7-7.4-7-3.4 0-7.2 3.4-12 9.6-5 6.7-7.7 13.7-7.7 20.4 0 4.8.7 8.6 2.4 11.5-3.4 1.4-6.7 2.4-10.3 2.4-3.6 0-6.2-.7-8.2-1.7-3.1-2.2-5.5-6.7-6.7-13.4-.2-2.4-1-16.3-1.4-41.5-.7-26.9-1.7-44.9-2.6-54-1.7-14.4-3.8-24.7-7-30.7-.5-1-1-1.7-1.2-1.7-.5 0-.7.7-1.2 1.9-1.9 4.8-2.9 8.2-2.9 10.6 2.6 9.1 4.6 18.5 5.8 28.6.5 6.2 1.2 23 2.2 50.4.7 25.4 1.7 40.6 2.6 45.8 1.4 8.4 4.1 13.9 8.4 17 2.9 2.2 7 3.4 12.2 3.4 5.3 0 11.5-2.6 18.5-7.7 5.6 3.6 14.7 5.3 27.2 5.3zm-25-19.5c-1.9-.7-3.8-1.9-5.5-3.8-1.7-1.7-2.9-3.4-3.4-4.8 1.2-2.6 3.1-5.5 6.2-8.9 3.1-3.4 5.5-5 7-5 1.2 0 2.6 1.9 4.3 5.8 1.4 3.4 2.2 6.2 2.2 8.2-1.9 3-5.5 5.9-10.8 8.5zM309 334.9c1.9 0 3.4-.7 3.8-2.2l3.6-10.1c.7-1.4-.7-2.2-3.6-2.2-8.4 0-20.2-1-35.3-3.1-13.4-1.9-24.5-3.6-32.9-5.5h-.6c3.6-2.9 7.1-6.1 10.4-9.8 3.6-3.8 8.4-11.5 14.4-22.6 4.6-8.4 8.2-12.5 10.8-12.7 1.4.2 3.1 1.4 4.6 4.1 1.7 2.6 2.4 6 2.4 9.6 0 3.1.5 4.6 1.4 4.6.7 0 1.4-1.2 1.9-3.8.7-3.8 1.2-7.7 1.2-11.3 0-5.8-1.2-10.1-3.1-13.7-1.9-2.6-3.6-4.1-5.5-4.1-2.6 0-6.5 4.3-12 13-7 11.3-12 18.5-15.4 21.8-5.8 5.8-11.5 10.3-17.5 14.2-2.9 1.9-7 4.1-12 6.5-3.4 1.7-5.5 3.1-6.2 4.3-1.9 4.1-3.1 7.4-3.6 9.6-.7 1.4.2 2.2 2.6 2.2 1.7 0 8.6 1 20.6 2.4 17.5 2.4 27.1 3.8 28.6 4.1-7.7 3.8-15.6 7.7-23.5 11.3-11.9 5.2-22.6 7.9-32.4 7.9v-.2c-4.6 0-8.2-.7-11-1.9-2.9-1.4-5.5-4.1-8.2-7.7-1.9-3.1-3.6-6.2-5.5-9.4-2.2-3.1-4.8-4.8-7.4-4.8-3.4 0-7.4 1.9-11.5 6.2-4.3 4.3-7.9 9.4-10.8 15.1-3.4 7.2-6.7 14.4-9.8 21.6-3.4 6-6.7 9.1-10.6 9.1-9.6 0-14.2-10.3-14.2-30.7 0-4.3.2-9.6 1-15.8v-.3c2.8-.4 4.8-4 6-10.8.2-.2.2-.5 0-.7 0-.2 0-.2-.2 0 0 0-.2.2-.2.5-1.7 2.9-3.1 4.6-4.6 4.6-2.2 0-3.1-2.2-3.1-6 0-3.1 1.2-8.2 3.6-15.6.5-1.7.7-2.6.7-2.9-.2 0-.7 1-1.7 2.6-3.8 7-5.5 13.9-5.5 20.4 0 4.3 1 6.9 3.1 7.7-1.9 5.7-2.8 13.6-2.8 23.1 0 7.9 1.4 15.6 4.8 23 3.8 8.4 8.4 12.7 13.7 12.7 3.6 0 7.2-2.4 10.3-7.2 2.2-3.4 4.6-8.4 7.2-15.4 2.9-7 4.8-11.3 5.8-13 6.2-9.4 12-13.9 17.5-13.9 1.7 0 3.4 1.2 5.3 4.1 1.9 3.4 3.8 6.7 5.8 9.8 3.1 4.8 7 7.9 11.8 9.4 2.1.5 5.6.9 10.6 1H212.1c7.1 0 15.2-1.9 24.2-5.3 4.8-1.9 13-5.5 24-11 10.1-5 18-8.6 23.5-10.3 4.6-1.8 13-2.5 25.2-2.5z"/>
    <path d="M367.6 278c-.2 0-.7.2-1 .7l-4.6 9.6c-.2.5-.2.7 0 1 3.8 2.4 7.7 5 11.3 7.9.5.2.7 0 1.2-.7 3.4-5.3 5-8.6 5-10.3 0-.5-1.9-1.9-5.8-4.6-3.5-2.4-5.7-3.6-6.1-3.6zM272.3 237.9c.5.2 1 0 1.2-.7 1.4-2.2 2.6-4.8 4.1-7.7 4.1 2.6 7.7 5 10.8 7.4.5.2 1 .2 1.4-.5 3.1-5.3 4.8-8.9 4.8-10.6 0-.5-1.9-1.9-5.5-4.3-3.8-2.6-5.8-3.8-6.2-3.8-.5 0-.7.2-1 .7l-3.8 7.9c-1-1-3.1-2.6-6.2-4.6-3.1-2.2-4.8-3.4-5.3-3.4-.2 0-.7.5-1 1l-4.6 9.6c-.2.5-.2.7 0 1 3.8 2.5 7.7 5.2 11.3 8zM162.1 292.9l-4.6 9.6c-.2.5-.2.7 0 1 3.8 2.4 7.7 5 11.3 7.9.5.2 1 0 1.2-.7 1.4-2.2 2.6-4.8 4.1-7.7 4.1 2.6 7.7 5 10.8 7.4.5.2 1 .2 1.4-.5 3.1-5.3 4.8-8.9 4.8-10.6 0-.5-1.9-1.9-5.5-4.3-3.8-2.6-5.8-3.8-6.2-3.8-.5 0-.7.2-1 .7l-3.8 7.9c-1-1-3.1-2.6-6.2-4.6-3.1-2.2-4.8-3.4-5.3-3.4-.3.1-.7.6-1 1.1zM362 236.3c3.4 0 6-1.7 8.4-4.6.7-1 1.2-3.6 1.7-7.7.2-3.6-2.2-7.4-7.2-11 .7-2.4 1.7-4.8 2.6-7 0-.2.2-.5.2-.5 0-.5-.5-.7-1-.7-.7 0-1.7.5-2.4 1.7-3.4 6.5-5.8 13.4-7 21.1-.2 1-.2 1.9-.2 2.6.1 3.9 1.6 6.1 4.9 6.1zm.3-16.8c5 2.9 7.4 5 7.4 6.2-.5 1-1.7 1.9-3.4 2.6-1.7 1-3.1 1.4-4.3 1.4-1.4 0-2.2-1-2.2-2.4.1-2.3.8-4.9 2.5-7.8zM307.6 351c.5-.7.5-1.2.2-1.2-.2-.2-.5 0-1.4.2-15.1 5.5-29.5 10.8-43.2 15.6-1.2 2.4-1.9 4.6-2.4 6.7 17-7.2 31.9-13 44.9-17.5.4-.4 1.1-1.7 1.9-3.8zM242.3 247.1c.2-.7.2-1.2.2-1.2-.2-.2-.7 0-1.4.2-20.2 7.4-39.4 14.6-57.8 21.4-1.2 2.4-1.9 4.6-2.4 6.7 22.6-9.4 42.5-17 59.3-23.3.4-.5 1.1-1.7 2.1-3.8zM408.4 375.7c-2.2 0-4.1 2.2-6 6.5-1.7 6.2-2.9 11-3.4 14.2 0 .5-.2.7-.2 1h-.2c0-.2 0-.5-.2-1-.7-5.3-2.4-9.6-4.6-12.7-2.2-3.4-4.6-4.8-7.4-4.8-.2 0-1 .7-1.9 2.6-1.2 1.9-1.7 3.1-1.7 3.4 0 .7.5 1.7 1.9 2.9s2.4 1.9 3.4 1.9c.7 0 1-.2 1.2-.5.2-.5.5-.5 1-.5 1 0 2.2 2.2 4.1 7 1.9 4.6 2.9 7.7 2.6 9.4.2 1 .2 1.7.7 1.7.5 0 1-.7 1.7-1.7.7-1.7 1.7-4.6 2.4-8.6 1.7-9.1 3.4-13.7 5.3-13.7 1 0 1.9.5 2.6 1.4 1 1 1.4 1.7 1.7 1.7.5 0 1-.7 1.4-2.2.5-1 .5-1.9.5-2.4 0-1-.5-1.9-1.4-3.4-1.1-1.5-2.3-2.2-3.5-2.2zM198.6 385.3c-.2-.2-.5 0-1.4.2-15.1 5.5-29.5 10.8-43.2 15.6-1.2 2.4-1.9 4.6-2.4 6.7 17-7.2 31.9-13 44.9-17.5.5-.5 1.2-1.7 1.9-3.8.4-.7.4-1.2.2-1.2zM249 399.7c-5.8 1.7-10.8 2.6-15.8 2.6s-7.7-1.2-7.7-3.6c0-1 .5-2.4 1.4-3.8l7.9-7.9c3.6-4.1 5.3-7 5.3-9.1 0-2.9-2.6-4.1-8.4-4.1-2.6 0-4.6.5-5.8 1.4-1 .7-1.9 2.4-2.9 4.8-.2.5-.2.7-.2.7.2.2.5 0 .7 0 1.7-1 3.1-1.2 4.3-1.2 2.4 0 4.8.2 6.7 1 1 .5 1.2 1 .5 1.4-2.6 3.1-5.5 6-8.4 9.1-2.9 3.4-4.1 6.7-4.1 10.1 0 1.9.7 3.6 2.2 4.8 1.4 1.2 3.6 1.9 5.8 1.9 7.7 0 14.2-2.4 19-6.7 1.2-1 1.7-1.7 1.7-1.7 0-.2-.8-.2-2.2.3zM359.6 393.7s-.2.2-.2.5c-1.7 2.9-3.1 4.6-4.6 4.6-2.2 0-3.1-2.2-3.1-6 0-3.1 1.2-8.2 3.6-15.6.5-1.7.7-2.6.7-2.9-.2 0-.7 1-1.7 2.6-3.8 7-5.5 13.9-5.5 20.4 0 5.3 1.4 7.9 4.6 7.9 3.1 0 5.3-3.6 6.5-10.8.2-.2.2-.5 0-.7 0-.2 0-.2-.3 0zM138.6 263.9c1.4 1.2 2.4 1.9 3.4 1.9.7 0 1-.2 1.2-.5.2-.5.5-.5 1-.5 1 0 2.2 2.2 4.1 7 1.9 4.6 2.9 7.7 2.6 9.4.2 1 .2 1.7.7 1.7.5 0 1-.7 1.7-1.7.7-1.7 1.7-4.6 2.4-8.6 1.7-9.1 3.4-13.7 5.3-13.7 1 0 1.9.5 2.6 1.4 1 1 1.4 1.7 1.7 1.7.5 0 1-.7 1.4-2.2.5-1 .5-1.9.5-2.4 0-1-.5-1.9-1.4-3.4-1-1.4-2.2-2.2-3.4-2.2-2.2 0-4.1 2.2-6 6.5-1.7 6.2-2.9 11-3.4 14.2 0 .5-.2.7-.2 1h-.2c0-.2 0-.5-.2-1-.7-5.3-2.4-9.6-4.6-12.7-2.2-3.4-4.6-4.8-7.4-4.8-.2 0-1 .7-1.9 2.6-1.2 1.9-1.7 3.1-1.7 3.4-.1.7.4 1.7 1.8 2.9zM218.3 244.9c3.1 0 5.3-3.6 6.5-10.8.2-.2.2-.5 0-.7 0-.2 0-.2-.2 0 0 0-.2.2-.2.5-1.7 2.9-3.1 4.6-4.6 4.6-2.2 0-3.1-2.2-3.1-6 0-3.1 1.2-8.2 3.6-15.6.5-1.7.7-2.6.7-2.9-.2 0-.7 1-1.7 2.6-3.8 7-5.5 13.9-5.5 20.4-.1 5.3 1.4 7.9 4.5 7.9zM219 293.1v.2c.2 0 1-.5 2.4-1.4 3.4-2.4 6-5.3 8.2-8.4 1.9-3.1 3.1-6 3.1-8.6 0-3.1-1.4-4.8-4.1-4.8-3.4 0-5.3 1.9-6.2 6-.2 1-.2 1.4-.2 1.4 0 .2.2.2.2.2.2 0 .5-.2 1.2-.5.7-.5 1.7-.7 2.6-.7 1.7 0 2.6 1 2.6 2.6 0 2.2-2.9 6-8.4 12-.9 1.3-1.4 1.8-1.4 2zM308.3 297c1.9-3.1 3.1-6 3.1-8.6 0-3.1-1.4-4.8-4.1-4.8-3.4 0-5.3 1.9-6.2 6-.2 1-.2 1.4-.2 1.4 0 .2.2.2.2.2.2 0 .5-.2 1.2-.5.7-.5 1.7-.7 2.6-.7 1.7 0 2.6 1 2.6 2.6 0 2.2-2.9 6-8.4 12-1 1.2-1.4 1.7-1.4 1.9v.2c.2 0 1-.5 2.4-1.4 3.4-2.3 6-5.2 8.2-8.3zM316 375.5c-2.2 0-4.1 2.2-6 6.5-1.7 6.2-2.9 11-3.4 14.2 0 .5-.2.7-.2 1h-.2c0-.2 0-.5-.2-1-.7-5.3-2.4-9.6-4.6-12.7-2.2-3.4-4.6-4.8-7.4-4.8-.2 0-1 .7-1.9 2.6-1.2 1.9-1.7 3.1-1.7 3.4 0 .7.5 1.7 1.9 2.9s2.4 1.9 3.4 1.9c.7 0 1-.2 1.2-.5.2-.5.5-.5 1-.5 1 0 2.2 2.2 4.1 7 1.9 4.6 2.9 7.7 2.6 9.4.2 1 .2 1.7.7 1.7.5 0 1-.7 1.7-1.7.7-1.7 1.7-4.6 2.4-8.6 1.7-9.1 3.4-13.7 5.3-13.7 1 0 1.9.5 2.6 1.4 1 1 1.4 1.7 1.7 1.7.5 0 1-.7 1.4-2.2.5-1 .5-1.9.5-2.4 0-1-.5-1.9-1.4-3.4-1.1-1.5-2.3-2.2-3.5-2.2zM670.2 311.9c-.7-1-1.2-1.2-1.7-1.2s-1 .7-1.2 2.2c-1.4 4.6-2.4 7.9-2.6 9.8 2.2 3.6 3.1 5.5 3.1 5.8-1 1.7-3.1 2.6-6.5 2.6-2.6 0-5-1-6.7-2.4-1.9-1.4-2.9-3.1-2.9-4.8 0 .5.7-1.4 1.7-5.5.5-2.2.2-3.1-.7-3.1-.7 0-1.4.5-2.4 1.4-2.4 3.8-5 7.7-7.4 11.8-3.8 5-8.9 7.7-14.9 7.7-7.4 0-11.3-2.9-11.3-8.2 0-1.2.2-2.6.7-4.6.5-1.9.7-3.4.7-4.1 0-1-.2-1.4-.7-1.4-.7 0-1.7.5-2.9 1.4-3.8 3.4-7.7 6.2-11.5 8.2-1.2.7-5.3 2.6-11.5 5.8v-.3c-1 .5-1.4.5-1.7.5-2.4-5-5.3-9.1-8.4-12.7-3.6-3.6-6.7-5.5-9.8-5.5-4.1 0-7.9 2.2-11.5 6.2-3.8 4.8-5.5 10.1-5.5 16.1 0 7.9 5.8 12 17.3 12 5.3 0 9.6-.7 12.5-1.7.5 1.7 1 3.4 1 4.8 0 2.2-3.6 6.5-10.3 13.2-7.7 7.2-15.6 13.2-23.8 18.2-10.3 6.2-19 9.4-26.2 9.4-8.4 0-14.4-2.6-18.2-7.7-1.5-2.3-2.6-4.9-3.1-7.7 12.1-7.4 21-14.4 26.6-20.8 1.9-2.2 3.4-5.3 4.6-9.4 1-3.6 1.4-6.5 1.4-8.9 0-5-1.4-10.6-4.1-17.3-1.7-3.8-3.6-7.9-5.3-12 2.9.7 4.8 1.2 5.5 1.2.5 0 .7-.2.7-.5 0-.5-.7-1.4-2.4-3.1-4.1-4.1-7.7-7.9-11-11.8-.5-.5-.7-.7-1-.7-.5 0-.7.5-1 1.7-.5 1.2-.7 3.4-1.2 6.5-.5 3.4-.5 5-.5 5.5.2.5.7 1.2 1.4 2.6 1 1.2 1.7 2.9 2.2 5 1.2 4.1 3.6 9.8 6.7 16.8 2.9 6.2 4.3 9.6 4.3 10.1 0 1.9-2.9 5-8.4 9.4-4.8 3.5-10.9 7.6-18.4 12 .7-4.4 2-9.5 3.8-15.6.2-1.4.5-2.6.5-3.4 0-.5 0-.7-.2-.7-.5 0-1 1-2.2 3.4-2.3 6.2-4 12.3-5.1 18.2-3.3 1.9-6.9 3.9-10.8 6-9.4 5-21.1 10.6-35.3 16.6-20.4 8.6-31.4 13.4-33.4 14.4-5.3 2.4-7.9 3.8-7.9 4.1 0 .2 0 .2.5.2 1 0 3.4-.2 7.2-1 3.6-.5 12.7-2.6 27.1-6 13.7-3.4 20.9-5 21.4-5 2.6 0 11-4.1 25.4-12.5 1.6-.9 3.1-1.8 4.6-2.7.2 7.4 2.1 13.7 5.7 18.5 4.3 6 10.6 9.1 18.7 9.1 9.6 0 20.6-5 33.6-14.6 8.6-6.5 16.6-13.9 23.8-22.6 3.1-3.6 5.8-8.2 7.4-13.7 1.4-4.3 2.2-7.7 2.2-10.6l.5-.5v.2c8.4-3.8 14.9-7.9 18.7-12.5 0 11 4.8 16.8 14.9 16.8 8.4 0 15.4-4.8 20.6-14.4 3.1 5.8 6.7 8.9 10.6 8.9 5.8 0 10.1-2.6 13-7.9 2.6-4.3 4.1-9.4 4.1-15.4 0-3.6-1.2-6.9-3.1-9.8zm-99.6 24.2c-5.8 0-8.6-1.4-8.6-4.3 0-2.4 1.9-3.4 6.2-3.4 2.9 0 6 2.2 9.6 6.7-2.6.5-5 1-7.2 1z"/>
    <path d="M479.2 311.1c-4.1-2.9-7.9-6.5-11.8-11.3-1-1.2-1.4-1.7-1.4-1.9 0-.2 1.7-.5 4.8-.5 1.7 0 2.4-.2 2.4-.5v-.2s-.5-.7-1.7-1.4c-1.9-1.7-5-3.6-8.9-6.2-4.1-2.6-6.2-3.8-7-3.8-.2 0-.7 1.2-1.4 4.1-.5 2.9-.7 5.3-.7 7.4 0 1.4.5 2.6 1.4 3.6 1.9 1.9 3.1 3.1 3.6 3.8 5 7.2 9.6 13 13.9 17-5 7.9-8.2 13.9-10.1 18.5-1.9 5.3-2.9 11-2.9 16.8 0 8.6 2.9 13 8.6 13 3.6 0 7.9-1.7 13-5 4.8-2.9 7.9-5.8 9.8-8.6 1-1.4 1.9-3.6 2.6-6.5 1-3.1 1.4-5.5 1.4-7.4 0-4.6-.7-8.6-1.7-11.8-1.7-4.3-5-9.4-9.8-14.9 4.8-7.2 8.4-12.7 10.8-16.8 3.8-6.5 5.8-11.8 5.8-15.6 0-3.4-.2-4.8-.5-4.8-.5 0-1.2 1.2-2.4 4.1-1.2 2.9-3.8 7.7-8.4 14.6-5.1 8.1-8.5 12.9-9.4 14.3zm11.5 30.8c.2.7-.2 1.7-1.7 3.1-3.4 3.4-7.4 6-11.8 7.9-3.1 1.2-5.5 1.9-7.4 1.9-4.3 0-6.2-1.4-6.2-4.3 0-2.2 1.7-6.2 5.5-12.7 3.4-5.8 6-9.8 8.2-12 6.2 5.3 10.7 10.8 13.4 16.1zM472.7 275.6c1.4-2.2 2.6-4.8 4.1-7.7 4.1 2.6 7.7 5 10.8 7.4.5.2 1 .2 1.4-.5 3.1-5.3 4.8-8.9 4.8-10.6 0-.5-1.9-1.9-5.5-4.3-3.8-2.6-5.8-3.8-6.2-3.8-.5 0-.7.2-1 .7l-3.8 7.9c-1-1-3.1-2.6-6.2-4.6-3.1-2.2-4.8-3.4-5.3-3.4-.2 0-.7.5-1 1l-4.6 9.6c-.2.5-.2.7 0 1 3.8 2.4 7.7 5 11.3 7.9.5.4.9.2 1.2-.6zM660.4 362.3c-.2-.2-.7.5-1.7 2.2-.7 1-1 1.7-.7 2.2.5 1.7.7 2.6.7 2.6 0 .2-.2.2-.7.2-3.6 0-5.5-.2-5-1 .5-1.4.7-2.6.7-3.1s0-.7-.2-.7c-.5 0-1.2.5-1.7 1.4-1 1.4-1.9 2.6-2.6 4.1-1.2 1.4-2.6 2.2-4.6 2.2-1 0-2.2-.2-3.4-.7-1.4-.5-2.6-.7-3.4-.7-3.6 0-7 1.2-10.6 3.8-2.9 1.9-5.5 4.6-7.9 7.4-3.6 4.3-6.5 7.4-8.4 9.4-4.1 3.1-7 5-8.9 6.2-1.9 1.2-2.9 1.9-2.9 1.9v.2c.5 0 1.9-.5 4.6-1.2 2.4-.7 4.6-1.9 6.7-3.6l10.8-10.8c5-4.8 10.1-7 14.9-7 .7 0 1.7.2 2.9.7 1.2.5 2.4.7 3.1.7 2.9 0 5.8-1.7 8.6-4.6 3.6 1.7 6.2 1.9 7.9 1 .5-.5 1.2-1.7 1.9-3.8.7-1.9 1.2-3.6 1.2-5.3s-.4-3-1.3-3.7zM563.6 297c.5 0 1-.7 1.7-1.7.7-1.7 1.7-4.6 2.4-8.6 1.7-9.1 3.4-13.7 5.3-13.7 1 0 1.9.5 2.6 1.4 1 1 1.4 1.7 1.7 1.7.5 0 1-.7 1.4-2.2.5-1 .5-1.9.5-2.4 0-1-.5-1.9-1.4-3.4-1-1.4-2.2-2.2-3.4-2.2-2.2 0-4.1 2.2-6 6.5-1.7 6.2-2.9 11-3.4 14.2 0 .5-.2.7-.2 1h-.2c0-.2 0-.5-.2-1-.7-5.3-2.4-9.6-4.6-12.7-2.2-3.4-4.6-4.8-7.4-4.8-.2 0-1 .7-1.9 2.6-1.2 1.9-1.7 3.1-1.7 3.4 0 .7.5 1.7 1.9 2.9s2.4 1.9 3.4 1.9c.7 0 1-.2 1.2-.5.2-.5.5-.5 1-.5 1 0 2.2 2.2 4.1 7 1.9 4.6 2.9 7.7 2.6 9.4.2 1 .2 1.7.6 1.7zM586 243c.5-.5 1.2-1.7 2.2-3.8.2-.7.2-1.2 0-1.2 0-.2-.5 0-1.2.2-25.9 9.6-51.1 18.7-75.4 27.8-1.2 2.4-1.9 4.6-2.4 6.7 2.6-1.7 16.3-7.2 40.6-16.1 23.7-8.8 35.9-13.4 36.2-13.6zM450.6 252.4c.2 0 1.2-.2 2.4-.7 7.7-2.9 12-4.6 13-5 3.6-1.4 7.7-4.1 12.2-7.2 3.8-2.9 7-6 9.6-9.6 2.2 1.2 3.6 2.4 4.1 3.4 2.2-2.9 3.1-5 3.1-6.2-.5-1-1.9-2.2-4.3-3.4 1.2-3.4 1.7-6.2 1.7-8.9 0-2.9-.7-4.6-2.4-5-1.9-.7-4.3.2-7.2 2.9-2.9 2.4-4.3 5.3-4.3 8.4 0 2.6 2.2 5 6.7 7.4-3.4 3.6-8.4 7.4-15.4 11.8-6 3.4-11.8 6.7-17.5 10.3-1.4.7-1.9 1.4-1.9 1.7 0-.2 0 .1.2.1zm31.9-34.6c0-.5.5-1 1.4-1.4 1-.5 1.7-.7 2.2-.7 1.2 0 1.9.7 2.2 2.2.2 1.4.2 2.9-.2 4.3-3.7-1.8-5.6-3.2-5.6-4.4zM589.1 293.9c.5 0 1.2-.2 2.4-.7 1.2-.7 6.5-2.6 15.4-6.2 4.8-1.9 9.4-4.3 13.9-7 6.7-4.1 12-8.9 15.8-13.9 2.2 1.2 3.1 2.2 3.1 2.6 0 .2-.7 2.4-2.2 6.7-1.4 4.3-1.9 7.7-1.9 10.3 0 5.3 1.4 7.9 4.6 7.9 2.9 0 5-3.6 6.5-10.8v-.7c0-.2-.2-.2-.2-.2-.2.2-.2.5-.5.7-1.7 2.9-3.1 4.6-4.3 4.6-2.2 0-3.1-2.2-3.1-6.2 0-3.4 1.2-7.9 3.6-13.7.5-1.4.7-2.6.7-3.4 0-1.4-1-2.9-3.4-4.3 1.2-3.1 1.7-6 1.7-8.6 0-2.9-1-4.6-2.4-5-1.9-.7-4.3.2-7.2 2.6-2.9 2.6-4.3 5.5-4.3 8.6 0 2.6 2.2 5 6.7 7.4-3.4 3.6-10.3 8.4-20.4 14.2-7.7 4.3-15.1 8.6-22.8 13-1.4 1-1.9 1.4-1.9 1.9-.1-.1-.1.2.2.2zm42.2-39.9c0-.5.5-1 1.4-1.4 1-.5 1.7-.7 2.2-.7 1.2 0 1.9.7 2.2 2.2.2 1.4.2 2.9-.2 4.3-3.7-1.7-5.6-3.2-5.6-4.4zM523.8 246.6c3.1 0 5.3-3.6 6.5-10.8.2-.2.2-.5 0-.7 0-.2 0-.2-.2 0 0 0-.2.2-.2.5-1.7 2.9-3.1 4.6-4.6 4.6-2.2 0-3.1-2.2-3.1-6 0-3.1 1.2-8.2 3.6-15.6.5-1.7.7-2.6.7-2.9-.2 0-.7 1-1.7 2.6-3.8 7-5.5 13.9-5.5 20.4-.1 5.2 1.4 7.9 4.5 7.9zM389.2 255.9c.5-.7.5-1.2.2-1.2-.2-.2-.5 0-1.4.2-15.1 5.5-29.5 10.8-43.2 15.6-1.2 2.4-1.9 4.6-2.4 6.7 17-7.2 31.9-13 44.9-17.5.4-.4 1.1-1.6 1.9-3.8z"/>
  </g>
</svg>
